# xmcd CD database file
#
# Track frame offsets:
#	150
#	27383
#	48258
#	77790
#	106720
#	134483
#
# Disc length: 2125 seconds
#
# Revision: 0
# Processed by: cddbd v1.4PL0 Copyright (c) Steve Scherf et al.
# Submitted via: CDex 1.51
#
DISCID=45084b06
DTITLE=Various Artist - The new Breed - The Funky Grooves of Blue Note nr1
DYEAR=2002
DGENRE=Jazz
TTITLE0=Ronny Jordan - Of The Record
TTITLE1=Charlie Hunter Feat. Norah Jones - Day is Done
TTITLE2=Booster - Blasé
TTITLE3=Rodney Jones - Soul Makossa
TTITLE4=Karl Denson - Dance Lesson No.2
TTITLE5=Erik Truffaz - The Point
EXTD=YEAR: 2002
EXTT0=
EXTT1=
EXTT2=
EXTT3=
EXTT4=
EXTT5=
PLAYORDER=
